<svg xmlns="http://www.w3.org/2000/svg" xmlns:xlink="http://www.w3.org/1999/xlink" viewBox="0,0,256,256" width="48px" height="48px"><g fill="none" fill-rule="nonzero" stroke="none" stroke-width="1" stroke-linecap="butt" stroke-linejoin="miter" stroke-miterlimit="10" stroke-dasharray="" stroke-dashoffset="0" font-family="none" font-weight="none" font-size="none" text-anchor="none" style="mix-blend-mode: normal"><g transform="scale(5.33333,5.33333)"><path d="M44,24c0,11 -9,20 -20,20c-11,0 -20,-9 -20,-20c0,-11 9,-20 20,-20c11,0 20,9 20,20z" fill="#f5a97f"></path><path d="M26,16.2c-0.6,-0.6 -1.5,-0.9 -2.5,-1.1c-0.4,-0.5 -1,-1 -1.9,-1.5c-1.6,-0.8 -3.5,-1.2 -5.3,-0.9h-0.4c-0.1,0 -0.2,0.1 -0.4,0.1c0.2,0 1,0.4 1.6,0.6c-0.3,0.2 -0.8,0.2 -1.1,0.4c0,0 0,0 -0.1,0l-0.2,0.2c-0.1,0.2 -0.2,0.4 -0.2,0.5c1.3,-0.1 3.2,0 4.6,0.4c-1.1,0.1 -2.1,0.4 -2.8,0.8c-0.5,0.3 -1,0.6 -1.3,1.1c-1.2,1.3 -1.7,3.5 -1.3,5.9c0.5,2.7 2.4,11.4 3.4,16.3l0.3,1.6c0,0 3.5,0.4 5.6,0.4c1.2,0 3.2,0.3 3.7,-0.2c-0.1,0 -0.6,-0.6 -0.8,-1.1c-0.5,-1 -1,-1.9 -1.4,-2.6c-1.2,-2.5 -2.5,-5.9 -1.9,-8.1c0.1,-0.4 0.1,-2.1 0.4,-2.3c2.6,-1.7 2.4,-0.1 3.5,-0.8c0.5,-0.4 1,-0.9 1.2,-1.5c0.7,-2.3 -0.9,-6.4 -2.7,-8.2z" fill="#f5f0ff"></path><path d="M24,42c-9.9,0 -18,-8.1 -18,-18c0,-9.9 8.1,-18 18,-18c9.9,0 18,8.1 18,18c0,9.9 -8.1,18 -18,18zM24,8c-8.8,0 -16,7.2 -16,16c0,8.8 7.2,16 16,16c8.8,0 16,-7.2 16,-16c0,-8.8 -7.2,-16 -16,-16z" fill="#f5f0ff"></path><path d="M19,21.1c-0.6,0 -1.2,0.5 -1.2,1.2c0,0.6 0.5,1.2 1.2,1.2c0.6,0 1.2,-0.5 1.2,-1.2c-0.1,-0.6 -0.6,-1.2 -1.2,-1.2zM19.5,22.2c-0.2,0 -0.3,-0.1 -0.3,-0.3c0,-0.2 0.1,-0.3 0.3,-0.3c0.2,0 0.3,0.1 0.3,0.3c0,0.2 -0.2,0.3 -0.3,0.3zM26.8,20.6c-0.6,0 -1,0.5 -1,1c0,0.6 0.5,1 1,1c0.6,0 1,-0.5 1,-1c0,-0.5 -0.5,-1 -1,-1zM27.2,21.5c-0.1,0 -0.3,-0.1 -0.3,-0.3c0,-0.1 0.1,-0.3 0.3,-0.3c0.1,0 0.3,0.1 0.3,0.3c0,0.2 -0.1,0.3 -0.3,0.3zM19.3,18.9c0,0 -0.9,-0.4 -1.7,0.1c-0.9,0.5 -0.8,1.1 -0.8,1.1c0,0 -0.5,-1 0.8,-1.5c1.1,-0.5 1.7,0.3 1.7,0.3M27.4,18.8c0,0 -0.6,-0.4 -1.1,-0.4c-1,0 -1.3,0.5 -1.3,0.5c0,0 0.2,-1.1 1.5,-0.9c0.6,0.2 0.9,0.8 0.9,0.8" fill="#6166aa"></path><path d="M23.3,35.7c0,0 -4.3,-2.3 -4.4,-1.4c-0.1,0.9 0,4.7 0.5,5c0.5,0.3 4.1,-1.9 4.1,-1.9zM25,35.6c0,0 2.9,-2.2 3.6,-2.1c0.6,0.1 0.8,4.7 0.2,4.9c-0.6,0.2 -3.9,-1.2 -3.9,-1.2z" fill="#a6da95"></path><path d="M22.5,35.7c0,1.5 -0.2,2.1 0.4,2.3c0.6,0.1 1.9,0 2.3,-0.3c0.4,-0.3 0.1,-2.2 -0.1,-2.6c-0.1,-0.3 -2.6,0 -2.6,0.6" fill="#98d983"></path><path d="M22.3,26.8c0.1,-0.7 2,-2.1 3.3,-2.2c1.3,-0.1 1.7,-0.1 2.8,-0.3c1.1,-0.3 3.9,-1 4.7,-1.3c0.8,-0.4 4.1,0.2 1.8,1.5c-1,0.6 -3.7,1.6 -5.7,2.2c-1.9,0.6 -3.1,-0.6 -3.8,0.4c-0.5,0.8 -0.1,1.8 2.2,2c3.1,0.3 6.2,-1.4 6.5,-0.5c0.3,0.9 -2.7,2 -4.6,2.1c-1.8,0 -5.6,-1.2 -6.1,-1.6c-0.5,-0.4 -1.2,-1.3 -1.1,-2.3" fill="#eed49f"></path></g></g></svg>